<?xml version="1.0" encoding="UTF-8"?>
<svg width="108px" height="108px" viewBox="0 0 108 108" version="1.1" xmlns="http://www.w3.org/2000/svg" xmlns:xlink="http://www.w3.org/1999/xlink">
    <title>画板备份 6</title>
    <defs>
        <path d="M27.8064283,29.0133664 C22.2306648,31.7206748 17.7660484,37.3386867 16.6467207,42.9770948 L16.6467207,42.9770948 C15.2176598,49.1678992 17.9488418,56.8226953 22.1406786,61.7129605 L22.1406786,61.7129605 C32.3051775,73.5699344 50.1162525,74.9070167 61.9233535,64.6998664 L61.9233535,64.6998664 C67.5623049,59.8248983 70.8114015,53.1984091 71.5597826,46.3135684 L71.5597826,46.3135684 C71.5597826,46.3135684 70.5188756,50.7143255 63.5825987,56.7107997 L63.5825987,56.7107997 C58.3109267,61.2682107 51.4290929,63.4364369 45.1094618,62.6146412 L45.1094618,62.6146412 C39.7382125,61.9163557 34.8459497,58.9744913 30.9189941,54.3935681 L30.9189941,54.3935681 C24.8205204,47.2795537 25.6193953,36.5477685 32.7037687,30.423535 L32.7037687,30.423535 C32.7037687,30.423535 36.4380578,27.3932873 40.2067617,27.0253064 L40.2067617,27.0253064 C40.2067617,27.0253064 39.4329926,26.951087 38.1988549,26.951087 L38.1988549,26.951087 C35.7379139,26.951087 31.4462177,27.2459816 27.8064283,29.0133664" id="path-1"></path>
        <linearGradient x1="15.5386661%" y1="72.5446814%" x2="77.9422722%" y2="26.2106997%" id="linearGradient-3">
            <stop stop-color="#0EA0FF" offset="0%"></stop>
            <stop stop-color="#070480" offset="100%"></stop>
        </linearGradient>
        <path d="M25.4616171,21.2647689 C19.8071731,26.1397123 16.5495956,32.7664514 15.798913,39.6509741 L15.798913,39.6509741 C15.798913,39.6509741 16.8426276,35.2502392 23.7976136,29.2540786 L23.7976136,29.2540786 C29.0835048,24.6966905 35.9836179,22.5284752 42.3205778,23.3497002 L42.3205778,23.3497002 C47.7063148,24.0479823 52.6117734,26.9901151 56.5490382,31.5710152 L56.5490382,31.5710152 C62.6642441,38.6847104 61.8632144,49.4167247 54.7597324,55.5412106 L54.7597324,55.5412106 C54.7597324,55.5412106 51.0153709,58.5708765 47.2365018,58.9394221 L47.2365018,58.9394221 C47.2365018,58.9394221 48.5673086,59.0666142 50.5232128,58.9878627 L50.5232128,58.9878627 C63.1798787,55.2097745 71.6285928,44.4245038 69.9546895,33.2151649 L69.9546895,33.2151649 C69.857955,32.5656068 69.7286928,31.9270966 69.5688829,31.3010506 L69.5688829,31.3010506 C68.5262997,28.6835552 67.0597251,26.2394264 65.3510313,24.2516597 L65.3510313,24.2516597 C59.7576828,17.7441809 51.8523226,14.405458 43.902555,14.4048913 L43.902555,14.4048913 C37.3673176,14.4043249 30.8029468,16.6595067 25.4616171,21.2647689" id="path-4"></path>
        <linearGradient x1="99.6062306%" y1="64.0228523%" x2="9.40960667%" y2="31.8029989%" id="linearGradient-6">
            <stop stop-color="#34F9FD" offset="0%"></stop>
            <stop stop-color="#0287FF" offset="100%"></stop>
        </linearGradient>
        <path d="M56.5391692,13.9402174 C56.6210095,13.9407828 57.4188108,13.9611377 58.633433,14.5635848 L58.633433,14.5635848 C58.945837,14.7185079 59.2850508,14.911879 59.6476878,15.1535929 L59.6476878,15.1535929 C59.8934907,15.3175626 60.1494532,15.5041488 60.414164,15.7153304 L60.414164,15.7153304 C60.6227156,15.881279 60.8363469,16.0636246 61.0553401,16.2623671 L61.0553401,16.2623671 C61.2396218,16.4297293 61.4264433,16.6075515 61.6172158,16.8000745 L61.6172158,16.8000745 C61.7817429,16.9663059 61.9488099,17.1444108 62.1175701,17.330997 L62.1175701,17.330997 C62.2691157,17.4980764 62.4217901,17.6725062 62.5761577,17.8568308 L62.5761577,17.8568308 C62.7155684,18.0236275 62.8566723,18.1966438 62.9986228,18.3787066 L62.9986228,18.3787066 C63.1287206,18.544938 63.2593828,18.7176715 63.3908916,18.8966246 L63.3908916,18.8966246 C63.5125231,19.0625732 63.6350013,19.2350241 63.7571973,19.412281 L63.7571973,19.412281 C63.8717736,19.5776642 63.9869144,19.7492669 64.1020551,19.9248275 L64.1020551,19.9248275 C64.2101407,20.089928 64.3187907,20.261248 64.4274407,20.4353951 L64.4274407,20.4353951 C64.4756982,20.512574 64.5236735,20.5857949 64.5719311,20.66467 L64.5719311,20.66467 C64.6252683,20.7573976 64.6738081,20.8501253 64.7246055,20.942853 L64.7246055,20.942853 C64.816323,21.1104978 64.9043718,21.2784254 64.9879053,21.4460702 L64.9879053,21.4460702 C65.0708744,21.612867 65.1498926,21.7796637 65.2246776,21.9467431 L65.2246776,21.9467431 C65.2986161,22.1121263 65.3697324,22.2780749 65.4360513,22.4440235 L65.4360513,22.4440235 C65.5015235,22.6085586 65.5641736,22.7736591 65.6220262,22.9384769 L65.6220262,22.9384769 C65.6798788,23.1021639 65.7346271,23.2664162 65.7845778,23.4301032 L65.7845778,23.4301032 C65.8345286,23.592942 65.8793997,23.7560636 65.9214486,23.9189024 L65.9214486,23.9189024 C65.9637798,24.0811759 66.000749,24.2431666 66.0357428,24.4051573 L66.0357428,24.4051573 C66.0707365,24.5665826 66.101215,24.7277252 66.1288713,24.8891505 L66.1288713,24.8891505 C66.1568099,25.049445 66.1805153,25.2100222 66.2013987,25.3705994 L66.2013987,25.3705994 C66.2222821,25.5300458 66.2400612,25.6897748 66.2541716,25.8497866 L66.2541716,25.8497866 C66.2688464,26.0083848 66.2804169,26.1675485 66.2883187,26.3264295 L66.2883187,26.3264295 C66.2962205,26.484745 66.3021469,26.6430605 66.3038401,26.8013761 L66.3038401,26.8013761 C66.3055334,26.9588435 66.3046868,27.1165936 66.3007358,27.274061 L66.3007358,27.274061 C66.2965027,27.4306804 66.2880365,27.5875824 66.277877,27.7444844 L66.277877,27.7444844 C66.2679997,27.9005383 66.2544538,28.0565921 66.2386501,28.2129287 L66.2386501,28.2129287 C66.2231287,28.3686999 66.2050674,28.5239057 66.1839018,28.6796769 L66.1839018,28.6796769 C66.1633007,28.8343172 66.1398774,28.989523 66.1141965,29.1447288 L66.1141965,29.1447288 C66.0879512,29.2990864 66.060577,29.4534441 66.029252,29.6078017 L66.029252,29.6078017 C65.9982091,29.761594 65.9657552,29.9156689 65.9296326,30.0694612 L65.9296326,30.0694612 C65.8937923,30.222688 65.8542832,30.3759148 65.8136452,30.5288589 L65.8136452,30.5288589 C65.7730073,30.6815203 65.7295473,30.8344645 65.6843941,30.9871259 L65.6843941,30.9871259 C65.6392408,31.1395046 65.5918299,31.2916006 65.5424436,31.4436966 L65.5424436,31.4436966 C65.4930572,31.5955099 65.4422598,31.7473232 65.3883581,31.8991365 L65.3883581,31.8991365 C65.3347387,32.0503844 65.2805548,32.2016322 65.22242,32.3531628 L65.22242,32.3531628 C65.1648496,32.5035626 65.1041749,32.6542451 65.0423714,32.8052102 L65.0423714,32.8052102 C64.9811323,32.95561 64.9165068,33.1060098 64.8513168,33.2561268 L64.8513168,33.2561268 C64.7858446,33.4062439 64.7183969,33.5560782 64.6489738,33.7061953 L64.6489738,33.7061953 C64.5801151,33.8554642 64.5101276,34.0050159 64.437318,34.1545675 L64.437318,34.1545675 C64.3645084,34.3038364 64.2916988,34.4528227 64.2155027,34.6020916 L64.2155027,34.6020916 C64.1395888,34.7505124 64.0608528,34.8994987 63.9812702,35.0479195 L63.9812702,35.0479195 C63.902252,35.1963403 63.820694,35.3447611 63.7380071,35.4928992 L63.7380071,35.4928992 C63.6556025,35.6407546 63.5717867,35.7888927 63.4862778,35.9370309 L63.4862778,35.9370309 C63.401051,36.0846036 63.3149777,36.2321763 63.2263644,36.3800317 L63.2263644,36.3800317 C63.1377512,36.5273217 63.0482913,36.6746117 62.956856,36.8219016 L62.956856,36.8219016 C62.8657029,36.9686262 62.7720099,37.1159162 62.6780348,37.2629235 L62.6780348,37.2629235 C62.5840596,37.4093654 62.4886733,37.5563727 62.3918761,37.7030973 L62.3918761,37.7030973 C62.2956432,37.8492564 62.1982815,37.9956983 62.0989444,38.1418575 L62.0989444,38.1418575 C61.9998895,38.2880166 61.9008346,38.4338931 61.7989576,38.5806177 L61.7989576,38.5806177 C61.6970806,38.7273423 61.5850441,38.8712398 61.4786517,39.0165508 L61.4786517,39.0165508 C61.3719772,39.1618619 61.2686892,39.3085865 61.1580637,39.452484 L61.1580637,39.452484 C61.0463094,39.5983604 60.9277822,39.7416925 60.8117948,39.8858728 L60.8117948,39.8858728 C60.6955252,40.0303357 60.5795378,40.1747986 60.4590351,40.3181307 L60.4590351,40.3181307 C60.3374035,40.462311 60.2121033,40.6050776 60.0862386,40.748127 L60.0862386,40.748127 C59.9598095,40.8917419 59.8316872,41.0345085 59.7007428,41.1767098 L59.7007428,41.1767098 C59.569234,41.3194765 59.4363141,41.4619605 59.30029,41.6035964 L59.30029,41.6035964 C59.1634192,41.7460804 59.0225976,41.8871508 58.8814937,42.0282213 L58.8814937,42.0282213 C58.7398254,42.1698571 58.5984393,42.3117757 58.4519734,42.4514326 L58.4519734,42.4514326 C58.3043788,42.5930685 58.1517044,42.7327254 57.9998766,42.872665 L57.9998766,42.872665 C57.8474844,43.0128874 57.6967855,43.1536751 57.5398779,43.2924839 L57.5398779,43.2924839 C57.3812772,43.432989 57.2164678,43.5709497 57.053634,43.7094758 L57.053634,43.7094758 C56.8899535,43.8482846 56.729095,43.9885069 56.5614636,44.1256195 L56.5614636,44.1256195 C56.3912923,44.2649937 56.2143481,44.4012581 56.0399437,44.5383707 L56.0399437,44.5383707 C55.8649749,44.6763314 55.6931103,44.8151402 55.5136262,44.9508392 L55.5136262,44.9508392 C55.3318844,45.0887999 55.1428052,45.2236508 54.9565481,45.3596326 L54.9565481,45.3596326 C54.7697265,45.495897 54.5854448,45.633575 54.3943902,45.7678605 L54.3943902,45.7678605 C54.199949,45.9044076 53.9987349,46.037845 53.8003428,46.1724132 L53.8003428,46.1724132 C53.6008219,46.3072642 53.4032765,46.4432459 53.1992403,46.5761179 L53.1992403,46.5761179 C52.992382,46.7109688 52.7793151,46.8432753 52.5673771,46.9761473 L52.5673771,46.9761473 C52.3548747,47.1098674 52.1426544,47.2438702 51.9256366,47.3750459 L51.9256366,47.3750459 C51.7049502,47.508766 51.4794662,47.6393763 51.2542644,47.7708348 L51.2542644,47.7708348 C51.0270871,47.9031413 50.7993454,48.0348825 50.5679351,48.1646447 L50.5679351,48.1646447 C50.3331382,48.2961031 50.0952371,48.426148 49.8562071,48.5556275 L49.8562071,48.5556275 C49.6135084,48.6862378 49.3685521,48.8154346 49.1213381,48.9437833 L49.1213381,48.9437833 C48.8715842,49.0735455 48.6215481,49.203025 48.3672789,49.3296774 L48.3672789,49.3296774 C48.10793,49.4591569 47.8440657,49.5858094 47.5802015,49.7121791 L47.5802015,49.7121791 C47.3143617,49.8393969 47.0516263,49.9685937 46.7812713,50.0929845 L46.7812713,50.0929845 C46.503861,50.2207678 46.2191134,50.3440277 45.9369056,50.4687012 L45.9369056,50.4687012 C45.652158,50.5942228 45.3674104,50.7200271 45.0778652,50.8427217 L45.0778652,50.8427217 C44.7823937,50.9673952 44.4841,51.0906551 44.1835488,51.2122188 L44.1835488,51.2122188 C44.0709479,51.2580173 43.9614513,51.3060773 43.8480037,51.3513103 L43.8480037,51.3513103 C43.6515871,51.42962 43.450373,51.5045372 43.246619,51.5774754 L43.246619,51.5774754 C42.9006323,51.7015835 42.5442039,51.8183412 42.179027,51.9271831 L42.179027,51.9271831 C41.7794208,52.0464852 41.3696551,52.1570234 40.94973,52.2585149 L40.94973,52.2585149 C40.4804185,52.3718802 39.9995364,52.4742198 39.5082127,52.5652513 L39.5082127,52.5652513 C38.9384352,52.6707007 38.3545474,52.7606014 37.7607822,52.8366494 L37.7607822,52.8366494 C37.0276064,52.9302251 36.278627,53.0017498 35.5189237,53.0509407 L35.5189237,53.0509407 C34.3861417,53.1247271 33.2299365,53.1490398 32.0675227,53.1258579 L32.0675227,53.1258579 C29.3778005,53.071861 26.6581643,52.7622976 24.1318403,52.2104549 L24.1318403,52.2104549 C23.0634017,51.9769394 22.0293925,51.7004526 21.0473095,51.3815599 L21.0473095,51.3815599 C20.3965383,51.1700956 19.7686261,50.9396899 19.1678057,50.6917565 L19.1678057,50.6917565 C18.6849482,50.4921658 18.2201521,50.2809842 17.7756748,50.0582116 L17.7756748,50.0582116 C17.3946943,49.8668194 17.0297997,49.6669461 16.6804265,49.4585915 L16.6804265,49.4585915 C16.3691513,49.2731362 16.0705755,49.0814613 15.7863923,48.882436 L15.7863923,48.882436 C15.5290188,48.7020694 15.2840624,48.5157659 15.0509588,48.3246565 L15.0509588,48.3246565 C14.8359165,48.1482477 14.6313159,47.9667503 14.438568,47.7810122 L14.438568,47.7810122 C14.2585194,47.6077132 14.0877837,47.4304564 13.9283363,47.2492416 L13.9283363,47.2492416 C13.778484,47.078487 13.6370979,46.9049053 13.5058713,46.7273657 L13.5058713,46.7273657 C13.3825465,46.5597209 13.2693812,46.3884009 13.1635533,46.2148192 L13.1635533,46.2148192 C13.137308,46.1712824 13.1090872,46.1285938 13.0836885,46.0847743 L13.0836885,46.0847743 C13.0836885,46.0847743 13.0145476,45.9507715 12.9104129,45.7127328 L12.9104129,45.7127328 C12.8517137,45.57873 12.7822906,45.4127813 12.7069411,45.2160177 L12.7069411,45.2160177 C12.6499352,45.0675969 12.5898249,44.901931 12.528868,44.7224125 L12.528868,44.7224125 C12.477224,44.568903 12.4247334,44.405216 12.3730893,44.2313516 L12.3730893,44.2313516 C12.3270895,44.0758632 12.281654,43.9130243 12.238194,43.7428351 L12.238194,43.7428351 C12.1981205,43.5859331 12.1597403,43.4242251 12.1238999,43.2565802 L12.1238999,43.2565802 C12.0903172,43.0999609 12.0595565,42.9376875 12.0313357,42.7728697 L12.0313357,42.7728697 C12.0042438,42.615685 11.9796917,42.4551078 11.9588083,42.2914209 L11.9588083,42.2914209 C11.9387716,42.1345188 11.9221213,41.9747898 11.9082931,41.812799 L11.9082931,41.812799 C11.8953116,41.6556143 11.8848699,41.4972988 11.8789435,41.3364389 L11.8789435,41.3364389 C11.8730172,41.1801023 11.8724528,41.0217868 11.8744282,40.8626231 L11.8744282,40.8626231 C11.8761215,40.7065692 11.8817656,40.5496672 11.8919251,40.3916344 L11.8919251,40.3916344 C11.9020846,40.2364286 11.916195,40.0803747 11.9351029,39.9234727 L11.9351029,39.9234727 C11.9537286,39.7691151 11.9779985,39.614192 12.005937,39.4589862 L12.005937,39.4589862 C12.0338756,39.3049113 12.0657651,39.151119 12.1035809,38.9970441 L12.1035809,38.9970441 C12.1411146,38.8441 12.1823169,38.6911558 12.2302922,38.5384944 L12.2302922,38.5384944 C12.2661326,38.4248465 12.3045129,38.3114813 12.3465618,38.1983987 L12.3465618,38.1983987 C12.3465618,38.1983987 12.2788319,38.3168527 12.1679243,38.5314268 L12.1679243,38.5314268 C12.1061208,38.6512943 12.0313357,38.7999978 11.9449802,38.9786682 L11.9449802,38.9786682 C11.8803546,39.1132364 11.8098026,39.2625053 11.7350176,39.4276058 L11.7350176,39.4276058 C11.671803,39.5664146 11.6049198,39.7185106 11.5366255,39.8776743 L11.5366255,39.8776743 C11.4751042,40.0210064 11.4124541,40.1702753 11.3478285,40.3288736 L11.3478285,40.3288736 C11.2894115,40.4733365 11.2298657,40.6251498 11.1703198,40.7814864 L11.1703198,40.7814864 C11.1144427,40.9276456 11.0582834,41.0788934 11.002124,41.23523 L11.002124,41.23523 C10.9487867,41.3828027 10.8960139,41.5340506 10.8435232,41.6898218 L10.8435232,41.6898218 C10.7930081,41.8382426 10.7433395,41.9900559 10.6942353,42.1458271 L10.6942353,42.1458271 C10.6473888,42.295096 10.6011068,42.4474747 10.5556713,42.6026805 L10.5556713,42.6026805 C10.5116469,42.7527976 10.4687513,42.9057417 10.4272668,43.0609475 L10.4272668,43.0609475 C10.3866289,43.2119126 10.3468376,43.3651395 10.3087395,43.5200625 L10.3087395,43.5200625 C10.2714881,43.6718758 10.2353655,43.8253854 10.200654,43.9808738 L10.200654,43.9808738 C10.166789,44.1332525 10.1340529,44.2867621 10.1032923,44.4425333 L10.1032923,44.4425333 C10.0728138,44.5954774 10.0440286,44.749835 10.0169367,44.9058889 L10.0169367,44.9058889 C9.99040917,45.0591157 9.96585709,45.2143215 9.94271605,45.3700927 L9.94271605,45.3700927 C9.91957502,45.5241676 9.89925606,45.6796561 9.88006593,45.8359927 L9.88006593,45.8359927 C9.86115801,45.9906331 9.84478996,46.1464043 9.83011515,46.3033063 L9.83011515,46.3033063 C9.81515814,46.4587947 9.80302321,46.6148486 9.79258152,46.7720333 L9.79258152,46.7720333 C9.78213983,46.9280872 9.77452022,47.0847065 9.76859386,47.242174 L9.76859386,47.242174 C9.76294971,47.3987933 9.75956321,47.555978 9.75815217,47.7140108 L9.75815217,47.7140108 C9.75815217,47.7332348 9.75815217,47.7521762 9.75815217,47.7714002 L9.75815217,47.7714002 L9.75815217,47.8409459 C9.75815217,47.9562901 9.76012763,48.071917 9.76294971,48.1875439 L9.76294971,48.1875439 C9.76690061,48.3458594 9.77310919,48.504175 9.78242204,48.6627732 L9.78242204,48.6627732 C9.79229931,48.8219369 9.80330542,48.9808178 9.81854464,49.1402642 L9.81854464,49.1402642 C9.83350165,49.2997106 9.85128074,49.4594396 9.87244632,49.6191687 L9.87244632,49.6191687 C9.87357515,49.6262364 9.87385736,49.6330213 9.87470398,49.6395236 L9.87470398,49.6395236 C9.89530515,49.7935985 9.91985722,49.947108 9.94525592,50.1009003 L9.94525592,50.1009003 C9.97234787,50.2623256 10.0025441,50.4231855 10.0347158,50.5840454 L10.0347158,50.5840454 C10.0671697,50.7460361 10.1027279,50.9077441 10.1405437,51.0691694 L10.1405437,51.0691694 C10.1786417,51.232291 10.2198441,51.3945644 10.2633041,51.5565551 L10.2633041,51.5565551 C10.3073285,51.7199594 10.3538928,51.8830809 10.4032791,52.0459198 L10.4032791,52.0459198 C10.4532299,52.2098894 10.5057205,52.3738591 10.5610333,52.5369807 L10.5610333,52.5369807 C10.6171926,52.7020811 10.6756096,52.8666162 10.7371309,53.0305859 L10.7371309,53.0305859 C10.799781,53.1962518 10.8644066,53.361635 10.9327009,53.5258874 L10.9327009,53.5258874 C11.0015596,53.6924014 11.072676,53.8586327 11.147461,54.0237332 L11.147461,54.0237332 C11.2233749,54.191378 11.3018287,54.3584575 11.3836689,54.5241234 L11.3836689,54.5241234 C11.4669202,54.6926164 11.553558,54.8605439 11.6430178,55.0270579 L11.6430178,55.0270579 C11.7338887,55.1966817 11.8281461,55.3651747 11.9255078,55.5325368 L11.9255078,55.5325368 C12.0245627,55.7035742 12.1270042,55.873198 12.2325499,56.0408428 L12.2325499,56.0408428 C12.3406354,56.2132937 12.4518253,56.3837656 12.5664017,56.5525412 L12.5664017,56.5525412 C12.6846467,56.7261229 12.8062783,56.8980084 12.9310141,57.0679149 L12.9310141,57.0679149 C13.0597008,57.2429101 13.1929029,57.4156436 13.3286448,57.586681 L13.3286448,57.586681 C13.4694665,57.7636551 13.6145213,57.9375195 13.7626804,58.1096877 L13.7626804,58.1096877 C13.9167658,58.2886408 14.0753666,58.4642014 14.2376361,58.6375004 L14.2376361,58.6375004 C14.4072429,58.8187151 14.5805185,58.9962547 14.7588738,59.1706845 L14.7588738,59.1706845 C14.9459775,59.3538782 15.1361856,59.5345275 15.3328844,59.7098054 L15.3328844,59.7098054 C15.5434114,59.8978051 15.7609936,60.0795853 15.9822445,60.257973 L15.9822445,60.257973 C16.2195812,60.4490825 16.4619977,60.6353859 16.7114693,60.8151872 L16.7114693,60.8151872 C16.9869041,61.0130816 17.2699585,61.2030602 17.5592215,61.3859712 L17.5592215,61.3859712 C17.8868647,61.5926295 18.2224097,61.7893931 18.567832,61.9751312 L18.567832,61.9751312 C18.9829596,62.1984692 19.4107866,62.4056929 19.8510307,62.596237 L19.8510307,62.596237 C20.4642682,62.8619809 21.1009289,63.0938001 21.7607307,63.2897156 L21.7607307,63.2897156 C21.8442642,63.314311 21.9261044,63.3411681 22.0102024,63.3646328 L22.0102024,63.3646328 C25.1142056,64.3272478 28.8593848,64.6992893 32.790539,64.5621767 L32.790539,64.5621767 C33.6670764,64.5316445 34.5529265,64.4756686 35.4430098,64.3950973 L35.4430098,64.3950973 C36.1358299,64.3326192 36.8311898,64.2545923 37.526832,64.16243 L37.526832,64.16243 C38.1214437,64.0838377 38.7157733,63.9945025 39.308974,63.8949898 L39.308974,63.8949898 C39.8378314,63.80622 40.3652777,63.7095345 40.891313,63.6046504 L40.891313,63.6046504 C41.3724772,63.5085303 41.8525126,63.406756 42.3294437,63.2973487 L42.3294437,63.2973487 C42.7702523,63.1961398 43.2076743,63.088146 43.6434031,62.9759116 L43.6434031,62.9759116 C44.0542976,62.8701794 44.4632167,62.7599239 44.8687492,62.6440144 L44.8687492,62.6440144 C45.2525518,62.534607 45.6332501,62.4209591 46.0111263,62.3027878 L46.0111263,62.3027878 C46.3712234,62.1908361 46.7273696,62.073513 47.0812581,61.9533628 L47.0812581,61.9533628 C47.4210363,61.8380186 47.7582746,61.719282 48.0915619,61.5968701 L48.0915619,61.5968701 C48.413561,61.4789816 48.7321736,61.3585487 49.0471174,61.2341579 L49.0471174,61.2341579 C49.0945283,61.2154993 49.1430681,61.1976888 49.190479,61.1787475 L49.190479,61.1787475 C49.447288,61.0764078 49.701275,60.9712411 49.955262,60.8657916 L49.955262,60.8657916 C50.2493225,60.7439452 50.5408431,60.6198371 50.8309527,60.4937501 L50.8309527,60.4937501 C51.1151359,60.3707728 51.3970615,60.2452512 51.6772938,60.1185988 L51.6772938,60.1185988 C51.9521642,59.9939253 52.2253413,59.8675556 52.496543,59.740055 L52.496543,59.740055 C52.7629471,59.6142507 53.0279402,59.4873156 53.2906756,59.3586842 L53.2906756,59.3586842 C53.5491779,59.2317491 53.8062692,59.1039658 54.0611028,58.9744863 L54.0611028,58.9744863 C54.3122677,58.846703 54.562586,58.7183544 54.8098,58.5877441 L54.8098,58.5877441 C55.0530631,58.4593954 55.2940685,58.3290678 55.5339451,58.1981747 L55.5339451,58.1981747 C55.770153,58.068978 56.0041033,57.9380849 56.2372069,57.8063438 L56.2372069,57.8063438 C56.4674884,57.6762989 56.6955123,57.5445577 56.9221251,57.4122512 L56.9221251,57.4122512 C57.1459159,57.2813581 57.36886,57.149617 57.5898287,57.0161796 L57.5898287,57.0161796 C57.8079753,56.8844385 58.0255575,56.7524146 58.2405998,56.6184118 L58.2405998,56.6184118 C58.4528201,56.4861053 58.6625004,56.3523852 58.8716164,56.2180997 L58.8716164,56.2180997 C59.0784747,56.0852277 59.2825109,55.9506595 59.4859827,55.8158086 L59.4859827,55.8158086 C59.6877613,55.6823712 59.8875644,55.5475203 60.0862386,55.4121039 L60.0862386,55.4121039 C60.2829374,55.2778184 60.479354,55.1429675 60.6729486,55.0067031 L60.6729486,55.0067031 C60.8642854,54.8718522 61.0544935,54.7358704 61.2427261,54.5993233 L61.2427261,54.5993233 C61.4295476,54.4641896 61.6135471,54.3273598 61.7972643,54.1905299 L61.7972643,54.1905299 C61.9795705,54.0542655 62.1607479,53.9177183 62.3399498,53.7797576 L62.3399498,53.7797576 C62.5180229,53.6432105 62.696096,53.5066633 62.8710649,53.3681372 L62.8710649,53.3681372 C63.0443404,53.2313074 63.2153583,53.0927813 63.3855296,52.9548206 L63.3855296,52.9548206 C63.5545721,52.8171426 63.7216391,52.6786165 63.8878594,52.539525 L63.8878594,52.539525 C64.0532332,52.4012816 64.2177603,52.2624728 64.3800298,52.1230986 L64.3800298,52.1230986 C64.5414526,51.9845725 64.7017466,51.8451983 64.859783,51.7052587 L64.859783,51.7052587 C65.0169727,51.5664499 65.1713404,51.4262275 65.3251436,51.2862879 L65.3251436,51.2862879 C65.4786646,51.146631 65.6307746,51.0064086 65.7814736,50.8656209 L65.7814736,50.8656209 C65.9310437,50.7256813 66.080896,50.5857416 66.2279262,50.4441058 L66.2279262,50.4441058 C66.3735455,50.3038834 66.5157782,50.1622476 66.6585753,50.0208944 L66.6585753,50.0208944 C66.800808,49.8801066 66.9413475,49.7384708 67.0807581,49.5962695 L67.0807581,49.5962695 C67.2193221,49.4549163 67.3584506,49.3135632 67.4939103,49.1710792 L67.4939103,49.1710792 C67.6290878,49.0294433 67.7614432,48.8866766 67.8935165,48.7441926 L67.8935165,48.7441926 C68.0250253,48.6019914 68.1545587,48.4592247 68.2832454,48.3161753 L68.2832454,48.3161753 C68.4116499,48.1734086 68.5397723,48.0309246 68.6650725,47.8870271 L68.6650725,47.8870271 C68.7898084,47.7442604 68.9122865,47.6006456 69.0342003,47.4567481 L69.0342003,47.4567481 C69.1555496,47.3134159 69.2746413,47.1692357 69.3928863,47.0250555 L69.3928863,47.0250555 C69.5111314,46.8814407 69.6290942,46.7372605 69.744235,46.5925148 L69.744235,46.5925148 C69.8590936,46.4483346 69.9719767,46.3038717 70.083731,46.1588433 L70.083731,46.1588433 C70.195203,46.0140977 70.3044174,45.8687866 70.4127852,45.7237583 L70.4127852,45.7237583 C70.5208708,45.57873 70.6292386,45.4337016 70.7345021,45.2878252 L70.7345021,45.2878252 C70.8394834,45.1422314 70.942207,44.9963549 71.0443662,44.8507612 L71.0443662,44.8507612 C71.1462432,44.704602 71.2455803,44.5584428 71.3443531,44.412001 L71.3443531,44.412001 C71.4428436,44.2658418 71.5416163,44.1193999 71.6370025,43.9729581 L71.6370025,43.9729581 C71.7323887,43.8259508 71.8257995,43.6792262 71.9177992,43.5322189 L71.9177992,43.5322189 C72.0103634,43.3852116 72.1001055,43.2379216 72.1892831,43.0903489 L72.1892831,43.0903489 C72.2784608,42.9427762 72.3673562,42.7954862 72.4534296,42.6476308 L72.4534296,42.6476308 C72.5392207,42.5000581 72.622472,42.3522027 72.7051589,42.2040646 L72.7051589,42.2040646 C72.788128,42.0556438 72.868275,41.907223 72.9478576,41.7588021 L72.9478576,41.7588021 C73.0274402,41.6103813 73.1067406,41.4616778 73.1829367,41.3129743 L73.1829367,41.3129743 C73.259415,41.163988 73.3330712,41.0147191 73.406163,40.8657329 L73.406163,40.8657329 C73.479537,40.7161812 73.550089,40.5669123 73.6197943,40.4170779 L73.6197943,40.4170779 C73.6897818,40.2675263 73.7597693,40.1179747 73.8263704,39.9681403 L73.8263704,39.9681403 C73.8932536,39.8180232 73.9570326,39.6679062 74.0202471,39.5175064 L74.0202471,39.5175064 C74.0837438,39.366824 74.1447007,39.2161415 74.2045288,39.065459 L74.2045288,39.065459 C74.264639,38.9150593 74.3250315,38.7640941 74.381473,38.6131289 L74.381473,38.6131289 C74.438479,38.461881 74.4926629,38.3103504 74.5460002,38.1591025 L74.5460002,38.1591025 C74.5993374,38.0070065 74.650417,37.855476 74.7003678,37.7036627 L74.7003678,37.7036627 C74.7503186,37.5515667 74.8005516,37.3997534 74.8471158,37.2476574 L74.8471158,37.2476574 C74.8939623,37.094996 74.9377045,36.9426172 74.9806001,36.7899558 L74.9806001,36.7899558 C75.0240601,36.6370117 75.064698,36.4843503 75.1044893,36.3311235 L75.1044893,36.3311235 C75.1439984,36.1778966 75.1837897,36.0246698 75.2199123,35.8717257 L75.2199123,35.8717257 C75.2560349,35.7176508 75.2898998,35.5638585 75.3223537,35.410349 L75.3223537,35.410349 C75.3550898,35.256274 75.3847216,35.1019164 75.4135068,34.9478414 L75.4135068,34.9478414 C75.4428564,34.7932011 75.4710772,34.6385607 75.4964759,34.4842031 L75.4964759,34.4842031 C75.5215924,34.32928 75.5450157,34.1743569 75.5664634,34.0194339 L75.5664634,34.0194339 C75.5879112,33.8636627 75.6059725,33.7084569 75.6237516,33.5529685 L75.6237516,33.5529685 C75.6412485,33.3969146 75.6578988,33.2411434 75.6717269,33.0853722 L75.6717269,33.0853722 C75.6852729,32.9290356 75.6985367,32.772699 75.7081317,32.6166451 L75.7081317,32.6166451 C75.718009,32.4594604 75.7236532,32.3025584 75.7292973,32.1459391 L75.7292973,32.1459391 C75.7349415,31.9884717 75.7386102,31.831287 75.7403034,31.6741022 L75.7403034,31.6741022 C75.7418478,31.5163521 75.7431255,31.3583193 75.7403034,31.2011346 L75.7403034,31.2011346 C75.7377636,31.0425363 75.7304262,30.8845035 75.723371,30.7261879 L75.723371,30.7261879 C75.7160336,30.5670243 75.7058741,30.408426 75.6943036,30.2498278 L75.6943036,30.2498278 C75.6821686,30.0903814 75.6694693,29.9309351 75.6531012,29.7720541 L75.6531012,29.7720541 C75.6367332,29.6120423 75.6189541,29.4520306 75.5980707,29.2925842 L75.5980707,29.2925842 C75.5766229,29.1317243 75.550942,28.9717125 75.5246967,28.811418 L75.5246967,28.811418 C75.4987336,28.6499927 75.4696662,28.4885674 75.4386233,28.3279902 L75.4386233,28.3279902 C75.4072983,28.1662822 75.3748444,28.0048569 75.3387218,27.8437143 L75.3387218,27.8437143 C75.3017526,27.6808754 75.2628079,27.518602 75.2213233,27.356894 L75.2213233,27.356894 C75.1789922,27.1934897 75.1321457,27.0306509 75.0847348,26.8683775 L75.0847348,26.8683775 C75.0364773,26.7044078 74.9856799,26.5407209 74.9323426,26.3775993 L74.9323426,26.3775993 C74.8781587,26.2130642 74.822846,26.0485291 74.7630179,25.8851249 L74.7630179,25.8851249 C74.7031899,25.7200244 74.6419508,25.5546412 74.5761964,25.3903888 L74.5761964,25.3903888 C74.5090309,25.2238748 74.437068,25.0584916 74.3642584,24.8931084 L74.3642584,24.8931084 C74.2906021,24.7254636 74.212995,24.5595149 74.1331302,24.3932836 L74.1331302,24.3932836 C74.0521366,24.2253561 73.9683209,24.0579939 73.8808365,23.8911972 L73.8808365,23.8911972 C73.7927876,23.7224215 73.7019167,23.5539286 73.6068127,23.3865664 L73.6068127,23.3865664 C73.5102977,23.2166599 73.4123716,23.0473188 73.3093657,22.8791086 L73.3093657,22.8791086 C73.2041022,22.7080712 73.0960167,22.537882 72.9839802,22.3688237 L72.9839802,22.3688237 C72.9749495,22.3552538 72.9667655,22.3414012 72.9580171,22.328114 L72.9580171,22.328114 C72.8493671,22.1649924 72.7356373,22.0109175 72.6233187,21.8540155 L72.6233187,21.8540155 C72.4971718,21.6778894 72.3696139,21.5048731 72.2395161,21.3366629 L72.2395161,21.3366629 C72.1032097,21.1605368 71.9669034,20.9838454 71.8260817,20.8159178 L71.8260817,20.8159178 C71.6742539,20.6344204 71.5184752,20.4611214 71.3618499,20.289236 L71.3618499,20.289236 C71.1953474,20.1066077 71.0260227,19.9304816 70.8547226,19.7580308 L70.8547226,19.7580308 C70.6710053,19.5728581 70.4853126,19.393905 70.29708,19.2206061 L70.29708,19.2206061 C70.0924794,19.0326064 69.8861855,18.8508262 69.677634,18.675831 L69.677634,18.675831 C69.4479169,18.4838734 69.2165065,18.2995489 68.9825563,18.1225747 L68.9825563,18.1225747 C68.7223607,17.9260938 68.4599075,17.7375287 68.1951966,17.5588583 L68.1951966,17.5588583 C67.8954919,17.3564406 67.594094,17.1619386 67.2910029,16.981572 L67.2910029,16.981572 C66.9289303,16.7661498 66.5654467,16.5691035 66.2025275,16.3828 L66.2025275,16.3828 C65.7532528,16.1529598 65.3051068,15.9440398 64.861194,15.755192 L64.861194,15.755192 C64.2386437,15.4905789 63.6256884,15.2638484 63.0305123,15.0710427 L63.0305123,15.0710427 C59.7221906,13.9981722 56.991266,13.942479 56.5843225,13.9402174 L56.5843225,13.9402174 L56.5391692,13.9402174 Z" id="path-7"></path>
        <linearGradient x1="26.3155464%" y1="82.185478%" x2="74.257367%" y2="18.3326928%" id="linearGradient-9">
            <stop stop-color="#34F9FD" offset="0%"></stop>
            <stop stop-color="#0287FF" offset="100%"></stop>
        </linearGradient>
    </defs>
    <g id="画板备份-6" stroke="none" stroke-width="1" fill="none" fill-rule="evenodd">
        <g id="编组-7备份" transform="translate(11.500000, 11.500000)">
            <rect id="矩形" x="0" y="0" width="85.5" height="85.5" rx="6"></rect>
            <mask id="mask-2" fill="white">
                <use xlink:href="#path-1"></use>
            </mask>
            <g id="Clip-2"></g>
            <path d="M27.8064283,29.0133664 C22.2306648,31.7206748 17.7660484,37.3386867 16.6467207,42.9770948 L16.6467207,42.9770948 C15.2176598,49.1678992 17.9488418,56.8226953 22.1406786,61.7129605 L22.1406786,61.7129605 C32.3051775,73.5699344 50.1162525,74.9070167 61.9233535,64.6998664 L61.9233535,64.6998664 C67.5623049,59.8248983 70.8114015,53.1984091 71.5597826,46.3135684 L71.5597826,46.3135684 C71.5597826,46.3135684 70.5188756,50.7143255 63.5825987,56.7107997 L63.5825987,56.7107997 C58.3109267,61.2682107 51.4290929,63.4364369 45.1094618,62.6146412 L45.1094618,62.6146412 C39.7382125,61.9163557 34.8459497,58.9744913 30.9189941,54.3935681 L30.9189941,54.3935681 C24.8205204,47.2795537 25.6193953,36.5477685 32.7037687,30.423535 L32.7037687,30.423535 C32.7037687,30.423535 36.4380578,27.3932873 40.2067617,27.0253064 L40.2067617,27.0253064 C40.2067617,27.0253064 39.4329926,26.951087 38.1988549,26.951087 L38.1988549,26.951087 C35.7379139,26.951087 31.4462177,27.2459816 27.8064283,29.0133664" id="Fill-1" fill="url(#linearGradient-3)" mask="url(#mask-2)"></path>
            <mask id="mask-5" fill="white">
                <use xlink:href="#path-4"></use>
            </mask>
            <g id="Clip-4"></g>
            <path d="M25.4616171,21.2647689 C19.8071731,26.1397123 16.5495956,32.7664514 15.798913,39.6509741 L15.798913,39.6509741 C15.798913,39.6509741 16.8426276,35.2502392 23.7976136,29.2540786 L23.7976136,29.2540786 C29.0835048,24.6966905 35.9836179,22.5284752 42.3205778,23.3497002 L42.3205778,23.3497002 C47.7063148,24.0479823 52.6117734,26.9901151 56.5490382,31.5710152 L56.5490382,31.5710152 C62.6642441,38.6847104 61.8632144,49.4167247 54.7597324,55.5412106 L54.7597324,55.5412106 C54.7597324,55.5412106 51.0153709,58.5708765 47.2365018,58.9394221 L47.2365018,58.9394221 C47.2365018,58.9394221 48.5673086,59.0666142 50.5232128,58.9878627 L50.5232128,58.9878627 C63.1798787,55.2097745 71.6285928,44.4245038 69.9546895,33.2151649 L69.9546895,33.2151649 C69.857955,32.5656068 69.7286928,31.9270966 69.5688829,31.3010506 L69.5688829,31.3010506 C68.5262997,28.6835552 67.0597251,26.2394264 65.3510313,24.2516597 L65.3510313,24.2516597 C59.7576828,17.7441809 51.8523226,14.405458 43.902555,14.4048913 L43.902555,14.4048913 C37.3673176,14.4043249 30.8029468,16.6595067 25.4616171,21.2647689" id="Fill-3" fill="url(#linearGradient-6)" mask="url(#mask-5)"></path>
            <mask id="mask-8" fill="white">
                <use xlink:href="#path-7"></use>
            </mask>
            <g id="Clip-6"></g>
            <path d="M56.5391692,13.9402174 C56.6210095,13.9407828 57.4188108,13.9611377 58.633433,14.5635848 L58.633433,14.5635848 C58.945837,14.7185079 59.2850508,14.911879 59.6476878,15.1535929 L59.6476878,15.1535929 C59.8934907,15.3175626 60.1494532,15.5041488 60.414164,15.7153304 L60.414164,15.7153304 C60.6227156,15.881279 60.8363469,16.0636246 61.0553401,16.2623671 L61.0553401,16.2623671 C61.2396218,16.4297293 61.4264433,16.6075515 61.6172158,16.8000745 L61.6172158,16.8000745 C61.7817429,16.9663059 61.9488099,17.1444108 62.1175701,17.330997 L62.1175701,17.330997 C62.2691157,17.4980764 62.4217901,17.6725062 62.5761577,17.8568308 L62.5761577,17.8568308 C62.7155684,18.0236275 62.8566723,18.1966438 62.9986228,18.3787066 L62.9986228,18.3787066 C63.1287206,18.544938 63.2593828,18.7176715 63.3908916,18.8966246 L63.3908916,18.8966246 C63.5125231,19.0625732 63.6350013,19.2350241 63.7571973,19.412281 L63.7571973,19.412281 C63.8717736,19.5776642 63.9869144,19.7492669 64.1020551,19.9248275 L64.1020551,19.9248275 C64.2101407,20.089928 64.3187907,20.261248 64.4274407,20.4353951 L64.4274407,20.4353951 C64.4756982,20.512574 64.5236735,20.5857949 64.5719311,20.66467 L64.5719311,20.66467 C64.6252683,20.7573976 64.6738081,20.8501253 64.7246055,20.942853 L64.7246055,20.942853 C64.816323,21.1104978 64.9043718,21.2784254 64.9879053,21.4460702 L64.9879053,21.4460702 C65.0708744,21.612867 65.1498926,21.7796637 65.2246776,21.9467431 L65.2246776,21.9467431 C65.2986161,22.1121263 65.3697324,22.2780749 65.4360513,22.4440235 L65.4360513,22.4440235 C65.5015235,22.6085586 65.5641736,22.7736591 65.6220262,22.9384769 L65.6220262,22.9384769 C65.6798788,23.1021639 65.7346271,23.2664162 65.7845778,23.4301032 L65.7845778,23.4301032 C65.8345286,23.592942 65.8793997,23.7560636 65.9214486,23.9189024 L65.9214486,23.9189024 C65.9637798,24.0811759 66.000749,24.2431666 66.0357428,24.4051573 L66.0357428,24.4051573 C66.0707365,24.5665826 66.101215,24.7277252 66.1288713,24.8891505 L66.1288713,24.8891505 C66.1568099,25.049445 66.1805153,25.2100222 66.2013987,25.3705994 L66.2013987,25.3705994 C66.2222821,25.5300458 66.2400612,25.6897748 66.2541716,25.8497866 L66.2541716,25.8497866 C66.2688464,26.0083848 66.2804169,26.1675485 66.2883187,26.3264295 L66.2883187,26.3264295 C66.2962205,26.484745 66.3021469,26.6430605 66.3038401,26.8013761 L66.3038401,26.8013761 C66.3055334,26.9588435 66.3046868,27.1165936 66.3007358,27.274061 L66.3007358,27.274061 C66.2965027,27.4306804 66.2880365,27.5875824 66.277877,27.7444844 L66.277877,27.7444844 C66.2679997,27.9005383 66.2544538,28.0565921 66.2386501,28.2129287 L66.2386501,28.2129287 C66.2231287,28.3686999 66.2050674,28.5239057 66.1839018,28.6796769 L66.1839018,28.6796769 C66.1633007,28.8343172 66.1398774,28.989523 66.1141965,29.1447288 L66.1141965,29.1447288 C66.0879512,29.2990864 66.060577,29.4534441 66.029252,29.6078017 L66.029252,29.6078017 C65.9982091,29.761594 65.9657552,29.9156689 65.9296326,30.0694612 L65.9296326,30.0694612 C65.8937923,30.222688 65.8542832,30.3759148 65.8136452,30.5288589 L65.8136452,30.5288589 C65.7730073,30.6815203 65.7295473,30.8344645 65.6843941,30.9871259 L65.6843941,30.9871259 C65.6392408,31.1395046 65.5918299,31.2916006 65.5424436,31.4436966 L65.5424436,31.4436966 C65.4930572,31.5955099 65.4422598,31.7473232 65.3883581,31.8991365 L65.3883581,31.8991365 C65.3347387,32.0503844 65.2805548,32.2016322 65.22242,32.3531628 L65.22242,32.3531628 C65.1648496,32.5035626 65.1041749,32.6542451 65.0423714,32.8052102 L65.0423714,32.8052102 C64.9811323,32.95561 64.9165068,33.1060098 64.8513168,33.2561268 L64.8513168,33.2561268 C64.7858446,33.4062439 64.7183969,33.5560782 64.6489738,33.7061953 L64.6489738,33.7061953 C64.5801151,33.8554642 64.5101276,34.0050159 64.437318,34.1545675 L64.437318,34.1545675 C64.3645084,34.3038364 64.2916988,34.4528227 64.2155027,34.6020916 L64.2155027,34.6020916 C64.1395888,34.7505124 64.0608528,34.8994987 63.9812702,35.0479195 L63.9812702,35.0479195 C63.902252,35.1963403 63.820694,35.3447611 63.7380071,35.4928992 L63.7380071,35.4928992 C63.6556025,35.6407546 63.5717867,35.7888927 63.4862778,35.9370309 L63.4862778,35.9370309 C63.401051,36.0846036 63.3149777,36.2321763 63.2263644,36.3800317 L63.2263644,36.3800317 C63.1377512,36.5273217 63.0482913,36.6746117 62.956856,36.8219016 L62.956856,36.8219016 C62.8657029,36.9686262 62.7720099,37.1159162 62.6780348,37.2629235 L62.6780348,37.2629235 C62.5840596,37.4093654 62.4886733,37.5563727 62.3918761,37.7030973 L62.3918761,37.7030973 C62.2956432,37.8492564 62.1982815,37.9956983 62.0989444,38.1418575 L62.0989444,38.1418575 C61.9998895,38.2880166 61.9008346,38.4338931 61.7989576,38.5806177 L61.7989576,38.5806177 C61.6970806,38.7273423 61.5850441,38.8712398 61.4786517,39.0165508 L61.4786517,39.0165508 C61.3719772,39.1618619 61.2686892,39.3085865 61.1580637,39.452484 L61.1580637,39.452484 C61.0463094,39.5983604 60.9277822,39.7416925 60.8117948,39.8858728 L60.8117948,39.8858728 C60.6955252,40.0303357 60.5795378,40.1747986 60.4590351,40.3181307 L60.4590351,40.3181307 C60.3374035,40.462311 60.2121033,40.6050776 60.0862386,40.748127 L60.0862386,40.748127 C59.9598095,40.8917419 59.8316872,41.0345085 59.7007428,41.1767098 L59.7007428,41.1767098 C59.569234,41.3194765 59.4363141,41.4619605 59.30029,41.6035964 L59.30029,41.6035964 C59.1634192,41.7460804 59.0225976,41.8871508 58.8814937,42.0282213 L58.8814937,42.0282213 C58.7398254,42.1698571 58.5984393,42.3117757 58.4519734,42.4514326 L58.4519734,42.4514326 C58.3043788,42.5930685 58.1517044,42.7327254 57.9998766,42.872665 L57.9998766,42.872665 C57.8474844,43.0128874 57.6967855,43.1536751 57.5398779,43.2924839 L57.5398779,43.2924839 C57.3812772,43.432989 57.2164678,43.5709497 57.053634,43.7094758 L57.053634,43.7094758 C56.8899535,43.8482846 56.729095,43.9885069 56.5614636,44.1256195 L56.5614636,44.1256195 C56.3912923,44.2649937 56.2143481,44.4012581 56.0399437,44.5383707 L56.0399437,44.5383707 C55.8649749,44.6763314 55.6931103,44.8151402 55.5136262,44.9508392 L55.5136262,44.9508392 C55.3318844,45.0887999 55.1428052,45.2236508 54.9565481,45.3596326 L54.9565481,45.3596326 C54.7697265,45.495897 54.5854448,45.633575 54.3943902,45.7678605 L54.3943902,45.7678605 C54.199949,45.9044076 53.9987349,46.037845 53.8003428,46.1724132 L53.8003428,46.1724132 C53.6008219,46.3072642 53.4032765,46.4432459 53.1992403,46.5761179 L53.1992403,46.5761179 C52.992382,46.7109688 52.7793151,46.8432753 52.5673771,46.9761473 L52.5673771,46.9761473 C52.3548747,47.1098674 52.1426544,47.2438702 51.9256366,47.3750459 L51.9256366,47.3750459 C51.7049502,47.508766 51.4794662,47.6393763 51.2542644,47.7708348 L51.2542644,47.7708348 C51.0270871,47.9031413 50.7993454,48.0348825 50.5679351,48.1646447 L50.5679351,48.1646447 C50.3331382,48.2961031 50.0952371,48.426148 49.8562071,48.5556275 L49.8562071,48.5556275 C49.6135084,48.6862378 49.3685521,48.8154346 49.1213381,48.9437833 L49.1213381,48.9437833 C48.8715842,49.0735455 48.6215481,49.203025 48.3672789,49.3296774 L48.3672789,49.3296774 C48.10793,49.4591569 47.8440657,49.5858094 47.5802015,49.7121791 L47.5802015,49.7121791 C47.3143617,49.8393969 47.0516263,49.9685937 46.7812713,50.0929845 L46.7812713,50.0929845 C46.503861,50.2207678 46.2191134,50.3440277 45.9369056,50.4687012 L45.9369056,50.4687012 C45.652158,50.5942228 45.3674104,50.7200271 45.0778652,50.8427217 L45.0778652,50.8427217 C44.7823937,50.9673952 44.4841,51.0906551 44.1835488,51.2122188 L44.1835488,51.2122188 C44.0709479,51.2580173 43.9614513,51.3060773 43.8480037,51.3513103 L43.8480037,51.3513103 C43.6515871,51.42962 43.450373,51.5045372 43.246619,51.5774754 L43.246619,51.5774754 C42.9006323,51.7015835 42.5442039,51.8183412 42.179027,51.9271831 L42.179027,51.9271831 C41.7794208,52.0464852 41.3696551,52.1570234 40.94973,52.2585149 L40.94973,52.2585149 C40.4804185,52.3718802 39.9995364,52.4742198 39.5082127,52.5652513 L39.5082127,52.5652513 C38.9384352,52.6707007 38.3545474,52.7606014 37.7607822,52.8366494 L37.7607822,52.8366494 C37.0276064,52.9302251 36.278627,53.0017498 35.5189237,53.0509407 L35.5189237,53.0509407 C34.3861417,53.1247271 33.2299365,53.1490398 32.0675227,53.1258579 L32.0675227,53.1258579 C29.3778005,53.071861 26.6581643,52.7622976 24.1318403,52.2104549 L24.1318403,52.2104549 C23.0634017,51.9769394 22.0293925,51.7004526 21.0473095,51.3815599 L21.0473095,51.3815599 C20.3965383,51.1700956 19.7686261,50.9396899 19.1678057,50.6917565 L19.1678057,50.6917565 C18.6849482,50.4921658 18.2201521,50.2809842 17.7756748,50.0582116 L17.7756748,50.0582116 C17.3946943,49.8668194 17.0297997,49.6669461 16.6804265,49.4585915 L16.6804265,49.4585915 C16.3691513,49.2731362 16.0705755,49.0814613 15.7863923,48.882436 L15.7863923,48.882436 C15.5290188,48.7020694 15.2840624,48.5157659 15.0509588,48.3246565 L15.0509588,48.3246565 C14.8359165,48.1482477 14.6313159,47.9667503 14.438568,47.7810122 L14.438568,47.7810122 C14.2585194,47.6077132 14.0877837,47.4304564 13.9283363,47.2492416 L13.9283363,47.2492416 C13.778484,47.078487 13.6370979,46.9049053 13.5058713,46.7273657 L13.5058713,46.7273657 C13.3825465,46.5597209 13.2693812,46.3884009 13.1635533,46.2148192 L13.1635533,46.2148192 C13.137308,46.1712824 13.1090872,46.1285938 13.0836885,46.0847743 L13.0836885,46.0847743 C13.0836885,46.0847743 13.0145476,45.9507715 12.9104129,45.7127328 L12.9104129,45.7127328 C12.8517137,45.57873 12.7822906,45.4127813 12.7069411,45.2160177 L12.7069411,45.2160177 C12.6499352,45.0675969 12.5898249,44.901931 12.528868,44.7224125 L12.528868,44.7224125 C12.477224,44.568903 12.4247334,44.405216 12.3730893,44.2313516 L12.3730893,44.2313516 C12.3270895,44.0758632 12.281654,43.9130243 12.238194,43.7428351 L12.238194,43.7428351 C12.1981205,43.5859331 12.1597403,43.4242251 12.1238999,43.2565802 L12.1238999,43.2565802 C12.0903172,43.0999609 12.0595565,42.9376875 12.0313357,42.7728697 L12.0313357,42.7728697 C12.0042438,42.615685 11.9796917,42.4551078 11.9588083,42.2914209 L11.9588083,42.2914209 C11.9387716,42.1345188 11.9221213,41.9747898 11.9082931,41.812799 L11.9082931,41.812799 C11.8953116,41.6556143 11.8848699,41.4972988 11.8789435,41.3364389 L11.8789435,41.3364389 C11.8730172,41.1801023 11.8724528,41.0217868 11.8744282,40.8626231 L11.8744282,40.8626231 C11.8761215,40.7065692 11.8817656,40.5496672 11.8919251,40.3916344 L11.8919251,40.3916344 C11.9020846,40.2364286 11.916195,40.0803747 11.9351029,39.9234727 L11.9351029,39.9234727 C11.9537286,39.7691151 11.9779985,39.614192 12.005937,39.4589862 L12.005937,39.4589862 C12.0338756,39.3049113 12.0657651,39.151119 12.1035809,38.9970441 L12.1035809,38.9970441 C12.1411146,38.8441 12.1823169,38.6911558 12.2302922,38.5384944 L12.2302922,38.5384944 C12.2661326,38.4248465 12.3045129,38.3114813 12.3465618,38.1983987 L12.3465618,38.1983987 C12.3465618,38.1983987 12.2788319,38.3168527 12.1679243,38.5314268 L12.1679243,38.5314268 C12.1061208,38.6512943 12.0313357,38.7999978 11.9449802,38.9786682 L11.9449802,38.9786682 C11.8803546,39.1132364 11.8098026,39.2625053 11.7350176,39.4276058 L11.7350176,39.4276058 C11.671803,39.5664146 11.6049198,39.7185106 11.5366255,39.8776743 L11.5366255,39.8776743 C11.4751042,40.0210064 11.4124541,40.1702753 11.3478285,40.3288736 L11.3478285,40.3288736 C11.2894115,40.4733365 11.2298657,40.6251498 11.1703198,40.7814864 L11.1703198,40.7814864 C11.1144427,40.9276456 11.0582834,41.0788934 11.002124,41.23523 L11.002124,41.23523 C10.9487867,41.3828027 10.8960139,41.5340506 10.8435232,41.6898218 L10.8435232,41.6898218 C10.7930081,41.8382426 10.7433395,41.9900559 10.6942353,42.1458271 L10.6942353,42.1458271 C10.6473888,42.295096 10.6011068,42.4474747 10.5556713,42.6026805 L10.5556713,42.6026805 C10.5116469,42.7527976 10.4687513,42.9057417 10.4272668,43.0609475 L10.4272668,43.0609475 C10.3866289,43.2119126 10.3468376,43.3651395 10.3087395,43.5200625 L10.3087395,43.5200625 C10.2714881,43.6718758 10.2353655,43.8253854 10.200654,43.9808738 L10.200654,43.9808738 C10.166789,44.1332525 10.1340529,44.2867621 10.1032923,44.4425333 L10.1032923,44.4425333 C10.0728138,44.5954774 10.0440286,44.749835 10.0169367,44.9058889 L10.0169367,44.9058889 C9.99040917,45.0591157 9.96585709,45.2143215 9.94271605,45.3700927 L9.94271605,45.3700927 C9.91957502,45.5241676 9.89925606,45.6796561 9.88006593,45.8359927 L9.88006593,45.8359927 C9.86115801,45.9906331 9.84478996,46.1464043 9.83011515,46.3033063 L9.83011515,46.3033063 C9.81515814,46.4587947 9.80302321,46.6148486 9.79258152,46.7720333 L9.79258152,46.7720333 C9.78213983,46.9280872 9.77452022,47.0847065 9.76859386,47.242174 L9.76859386,47.242174 C9.76294971,47.3987933 9.75956321,47.555978 9.75815217,47.7140108 L9.75815217,47.7140108 C9.75815217,47.7332348 9.75815217,47.7521762 9.75815217,47.7714002 L9.75815217,47.7714002 L9.75815217,47.8409459 C9.75815217,47.9562901 9.76012763,48.071917 9.76294971,48.1875439 L9.76294971,48.1875439 C9.76690061,48.3458594 9.77310919,48.504175 9.78242204,48.6627732 L9.78242204,48.6627732 C9.79229931,48.8219369 9.80330542,48.9808178 9.81854464,49.1402642 L9.81854464,49.1402642 C9.83350165,49.2997106 9.85128074,49.4594396 9.87244632,49.6191687 L9.87244632,49.6191687 C9.87357515,49.6262364 9.87385736,49.6330213 9.87470398,49.6395236 L9.87470398,49.6395236 C9.89530515,49.7935985 9.91985722,49.947108 9.94525592,50.1009003 L9.94525592,50.1009003 C9.97234787,50.2623256 10.0025441,50.4231855 10.0347158,50.5840454 L10.0347158,50.5840454 C10.0671697,50.7460361 10.1027279,50.9077441 10.1405437,51.0691694 L10.1405437,51.0691694 C10.1786417,51.232291 10.2198441,51.3945644 10.2633041,51.5565551 L10.2633041,51.5565551 C10.3073285,51.7199594 10.3538928,51.8830809 10.4032791,52.0459198 L10.4032791,52.0459198 C10.4532299,52.2098894 10.5057205,52.3738591 10.5610333,52.5369807 L10.5610333,52.5369807 C10.6171926,52.7020811 10.6756096,52.8666162 10.7371309,53.0305859 L10.7371309,53.0305859 C10.799781,53.1962518 10.8644066,53.361635 10.9327009,53.5258874 L10.9327009,53.5258874 C11.0015596,53.6924014 11.072676,53.8586327 11.147461,54.0237332 L11.147461,54.0237332 C11.2233749,54.191378 11.3018287,54.3584575 11.3836689,54.5241234 L11.3836689,54.5241234 C11.4669202,54.6926164 11.553558,54.8605439 11.6430178,55.0270579 L11.6430178,55.0270579 C11.7338887,55.1966817 11.8281461,55.3651747 11.9255078,55.5325368 L11.9255078,55.5325368 C12.0245627,55.7035742 12.1270042,55.873198 12.2325499,56.0408428 L12.2325499,56.0408428 C12.3406354,56.2132937 12.4518253,56.3837656 12.5664017,56.5525412 L12.5664017,56.5525412 C12.6846467,56.7261229 12.8062783,56.8980084 12.9310141,57.0679149 L12.9310141,57.0679149 C13.0597008,57.2429101 13.1929029,57.4156436 13.3286448,57.586681 L13.3286448,57.586681 C13.4694665,57.7636551 13.6145213,57.9375195 13.7626804,58.1096877 L13.7626804,58.1096877 C13.9167658,58.2886408 14.0753666,58.4642014 14.2376361,58.6375004 L14.2376361,58.6375004 C14.4072429,58.8187151 14.5805185,58.9962547 14.7588738,59.1706845 L14.7588738,59.1706845 C14.9459775,59.3538782 15.1361856,59.5345275 15.3328844,59.7098054 L15.3328844,59.7098054 C15.5434114,59.8978051 15.7609936,60.0795853 15.9822445,60.257973 L15.9822445,60.257973 C16.2195812,60.4490825 16.4619977,60.6353859 16.7114693,60.8151872 L16.7114693,60.8151872 C16.9869041,61.0130816 17.2699585,61.2030602 17.5592215,61.3859712 L17.5592215,61.3859712 C17.8868647,61.5926295 18.2224097,61.7893931 18.567832,61.9751312 L18.567832,61.9751312 C18.9829596,62.1984692 19.4107866,62.4056929 19.8510307,62.596237 L19.8510307,62.596237 C20.4642682,62.8619809 21.1009289,63.0938001 21.7607307,63.2897156 L21.7607307,63.2897156 C21.8442642,63.314311 21.9261044,63.3411681 22.0102024,63.3646328 L22.0102024,63.3646328 C25.1142056,64.3272478 28.8593848,64.6992893 32.790539,64.5621767 L32.790539,64.5621767 C33.6670764,64.5316445 34.5529265,64.4756686 35.4430098,64.3950973 L35.4430098,64.3950973 C36.1358299,64.3326192 36.8311898,64.2545923 37.526832,64.16243 L37.526832,64.16243 C38.1214437,64.0838377 38.7157733,63.9945025 39.308974,63.8949898 L39.308974,63.8949898 C39.8378314,63.80622 40.3652777,63.7095345 40.891313,63.6046504 L40.891313,63.6046504 C41.3724772,63.5085303 41.8525126,63.406756 42.3294437,63.2973487 L42.3294437,63.2973487 C42.7702523,63.1961398 43.2076743,63.088146 43.6434031,62.9759116 L43.6434031,62.9759116 C44.0542976,62.8701794 44.4632167,62.7599239 44.8687492,62.6440144 L44.8687492,62.6440144 C45.2525518,62.534607 45.6332501,62.4209591 46.0111263,62.3027878 L46.0111263,62.3027878 C46.3712234,62.1908361 46.7273696,62.073513 47.0812581,61.9533628 L47.0812581,61.9533628 C47.4210363,61.8380186 47.7582746,61.719282 48.0915619,61.5968701 L48.0915619,61.5968701 C48.413561,61.4789816 48.7321736,61.3585487 49.0471174,61.2341579 L49.0471174,61.2341579 C49.0945283,61.2154993 49.1430681,61.1976888 49.190479,61.1787475 L49.190479,61.1787475 C49.447288,61.0764078 49.701275,60.9712411 49.955262,60.8657916 L49.955262,60.8657916 C50.2493225,60.7439452 50.5408431,60.6198371 50.8309527,60.4937501 L50.8309527,60.4937501 C51.1151359,60.3707728 51.3970615,60.2452512 51.6772938,60.1185988 L51.6772938,60.1185988 C51.9521642,59.9939253 52.2253413,59.8675556 52.496543,59.740055 L52.496543,59.740055 C52.7629471,59.6142507 53.0279402,59.4873156 53.2906756,59.3586842 L53.2906756,59.3586842 C53.5491779,59.2317491 53.8062692,59.1039658 54.0611028,58.9744863 L54.0611028,58.9744863 C54.3122677,58.846703 54.562586,58.7183544 54.8098,58.5877441 L54.8098,58.5877441 C55.0530631,58.4593954 55.2940685,58.3290678 55.5339451,58.1981747 L55.5339451,58.1981747 C55.770153,58.068978 56.0041033,57.9380849 56.2372069,57.8063438 L56.2372069,57.8063438 C56.4674884,57.6762989 56.6955123,57.5445577 56.9221251,57.4122512 L56.9221251,57.4122512 C57.1459159,57.2813581 57.36886,57.149617 57.5898287,57.0161796 L57.5898287,57.0161796 C57.8079753,56.8844385 58.0255575,56.7524146 58.2405998,56.6184118 L58.2405998,56.6184118 C58.4528201,56.4861053 58.6625004,56.3523852 58.8716164,56.2180997 L58.8716164,56.2180997 C59.0784747,56.0852277 59.2825109,55.9506595 59.4859827,55.8158086 L59.4859827,55.8158086 C59.6877613,55.6823712 59.8875644,55.5475203 60.0862386,55.4121039 L60.0862386,55.4121039 C60.2829374,55.2778184 60.479354,55.1429675 60.6729486,55.0067031 L60.6729486,55.0067031 C60.8642854,54.8718522 61.0544935,54.7358704 61.2427261,54.5993233 L61.2427261,54.5993233 C61.4295476,54.4641896 61.6135471,54.3273598 61.7972643,54.1905299 L61.7972643,54.1905299 C61.9795705,54.0542655 62.1607479,53.9177183 62.3399498,53.7797576 L62.3399498,53.7797576 C62.5180229,53.6432105 62.696096,53.5066633 62.8710649,53.3681372 L62.8710649,53.3681372 C63.0443404,53.2313074 63.2153583,53.0927813 63.3855296,52.9548206 L63.3855296,52.9548206 C63.5545721,52.8171426 63.7216391,52.6786165 63.8878594,52.539525 L63.8878594,52.539525 C64.0532332,52.4012816 64.2177603,52.2624728 64.3800298,52.1230986 L64.3800298,52.1230986 C64.5414526,51.9845725 64.7017466,51.8451983 64.859783,51.7052587 L64.859783,51.7052587 C65.0169727,51.5664499 65.1713404,51.4262275 65.3251436,51.2862879 L65.3251436,51.2862879 C65.4786646,51.146631 65.6307746,51.0064086 65.7814736,50.8656209 L65.7814736,50.8656209 C65.9310437,50.7256813 66.080896,50.5857416 66.2279262,50.4441058 L66.2279262,50.4441058 C66.3735455,50.3038834 66.5157782,50.1622476 66.6585753,50.0208944 L66.6585753,50.0208944 C66.800808,49.8801066 66.9413475,49.7384708 67.0807581,49.5962695 L67.0807581,49.5962695 C67.2193221,49.4549163 67.3584506,49.3135632 67.4939103,49.1710792 L67.4939103,49.1710792 C67.6290878,49.0294433 67.7614432,48.8866766 67.8935165,48.7441926 L67.8935165,48.7441926 C68.0250253,48.6019914 68.1545587,48.4592247 68.2832454,48.3161753 L68.2832454,48.3161753 C68.4116499,48.1734086 68.5397723,48.0309246 68.6650725,47.8870271 L68.6650725,47.8870271 C68.7898084,47.7442604 68.9122865,47.6006456 69.0342003,47.4567481 L69.0342003,47.4567481 C69.1555496,47.3134159 69.2746413,47.1692357 69.3928863,47.0250555 L69.3928863,47.0250555 C69.5111314,46.8814407 69.6290942,46.7372605 69.744235,46.5925148 L69.744235,46.5925148 C69.8590936,46.4483346 69.9719767,46.3038717 70.083731,46.1588433 L70.083731,46.1588433 C70.195203,46.0140977 70.3044174,45.8687866 70.4127852,45.7237583 L70.4127852,45.7237583 C70.5208708,45.57873 70.6292386,45.4337016 70.7345021,45.2878252 L70.7345021,45.2878252 C70.8394834,45.1422314 70.942207,44.9963549 71.0443662,44.8507612 L71.0443662,44.8507612 C71.1462432,44.704602 71.2455803,44.5584428 71.3443531,44.412001 L71.3443531,44.412001 C71.4428436,44.2658418 71.5416163,44.1193999 71.6370025,43.9729581 L71.6370025,43.9729581 C71.7323887,43.8259508 71.8257995,43.6792262 71.9177992,43.5322189 L71.9177992,43.5322189 C72.0103634,43.3852116 72.1001055,43.2379216 72.1892831,43.0903489 L72.1892831,43.0903489 C72.2784608,42.9427762 72.3673562,42.7954862 72.4534296,42.6476308 L72.4534296,42.6476308 C72.5392207,42.5000581 72.622472,42.3522027 72.7051589,42.2040646 L72.7051589,42.2040646 C72.788128,42.0556438 72.868275,41.907223 72.9478576,41.7588021 L72.9478576,41.7588021 C73.0274402,41.6103813 73.1067406,41.4616778 73.1829367,41.3129743 L73.1829367,41.3129743 C73.259415,41.163988 73.3330712,41.0147191 73.406163,40.8657329 L73.406163,40.8657329 C73.479537,40.7161812 73.550089,40.5669123 73.6197943,40.4170779 L73.6197943,40.4170779 C73.6897818,40.2675263 73.7597693,40.1179747 73.8263704,39.9681403 L73.8263704,39.9681403 C73.8932536,39.8180232 73.9570326,39.6679062 74.0202471,39.5175064 L74.0202471,39.5175064 C74.0837438,39.366824 74.1447007,39.2161415 74.2045288,39.065459 L74.2045288,39.065459 C74.264639,38.9150593 74.3250315,38.7640941 74.381473,38.6131289 L74.381473,38.6131289 C74.438479,38.461881 74.4926629,38.3103504 74.5460002,38.1591025 L74.5460002,38.1591025 C74.5993374,38.0070065 74.650417,37.855476 74.7003678,37.7036627 L74.7003678,37.7036627 C74.7503186,37.5515667 74.8005516,37.3997534 74.8471158,37.2476574 L74.8471158,37.2476574 C74.8939623,37.094996 74.9377045,36.9426172 74.9806001,36.7899558 L74.9806001,36.7899558 C75.0240601,36.6370117 75.064698,36.4843503 75.1044893,36.3311235 L75.1044893,36.3311235 C75.1439984,36.1778966 75.1837897,36.0246698 75.2199123,35.8717257 L75.2199123,35.8717257 C75.2560349,35.7176508 75.2898998,35.5638585 75.3223537,35.410349 L75.3223537,35.410349 C75.3550898,35.256274 75.3847216,35.1019164 75.4135068,34.9478414 L75.4135068,34.9478414 C75.4428564,34.7932011 75.4710772,34.6385607 75.4964759,34.4842031 L75.4964759,34.4842031 C75.5215924,34.32928 75.5450157,34.1743569 75.5664634,34.0194339 L75.5664634,34.0194339 C75.5879112,33.8636627 75.6059725,33.7084569 75.6237516,33.5529685 L75.6237516,33.5529685 C75.6412485,33.3969146 75.6578988,33.2411434 75.6717269,33.0853722 L75.6717269,33.0853722 C75.6852729,32.9290356 75.6985367,32.772699 75.7081317,32.6166451 L75.7081317,32.6166451 C75.718009,32.4594604 75.7236532,32.3025584 75.7292973,32.1459391 L75.7292973,32.1459391 C75.7349415,31.9884717 75.7386102,31.831287 75.7403034,31.6741022 L75.7403034,31.6741022 C75.7418478,31.5163521 75.7431255,31.3583193 75.7403034,31.2011346 L75.7403034,31.2011346 C75.7377636,31.0425363 75.7304262,30.8845035 75.723371,30.7261879 L75.723371,30.7261879 C75.7160336,30.5670243 75.7058741,30.408426 75.6943036,30.2498278 L75.6943036,30.2498278 C75.6821686,30.0903814 75.6694693,29.9309351 75.6531012,29.7720541 L75.6531012,29.7720541 C75.6367332,29.6120423 75.6189541,29.4520306 75.5980707,29.2925842 L75.5980707,29.2925842 C75.5766229,29.1317243 75.550942,28.9717125 75.5246967,28.811418 L75.5246967,28.811418 C75.4987336,28.6499927 75.4696662,28.4885674 75.4386233,28.3279902 L75.4386233,28.3279902 C75.4072983,28.1662822 75.3748444,28.0048569 75.3387218,27.8437143 L75.3387218,27.8437143 C75.3017526,27.6808754 75.2628079,27.518602 75.2213233,27.356894 L75.2213233,27.356894 C75.1789922,27.1934897 75.1321457,27.0306509 75.0847348,26.8683775 L75.0847348,26.8683775 C75.0364773,26.7044078 74.9856799,26.5407209 74.9323426,26.3775993 L74.9323426,26.3775993 C74.8781587,26.2130642 74.822846,26.0485291 74.7630179,25.8851249 L74.7630179,25.8851249 C74.7031899,25.7200244 74.6419508,25.5546412 74.5761964,25.3903888 L74.5761964,25.3903888 C74.5090309,25.2238748 74.437068,25.0584916 74.3642584,24.8931084 L74.3642584,24.8931084 C74.2906021,24.7254636 74.212995,24.5595149 74.1331302,24.3932836 L74.1331302,24.3932836 C74.0521366,24.2253561 73.9683209,24.0579939 73.8808365,23.8911972 L73.8808365,23.8911972 C73.7927876,23.7224215 73.7019167,23.5539286 73.6068127,23.3865664 L73.6068127,23.3865664 C73.5102977,23.2166599 73.4123716,23.0473188 73.3093657,22.8791086 L73.3093657,22.8791086 C73.2041022,22.7080712 73.0960167,22.537882 72.9839802,22.3688237 L72.9839802,22.3688237 C72.9749495,22.3552538 72.9667655,22.3414012 72.9580171,22.328114 L72.9580171,22.328114 C72.8493671,22.1649924 72.7356373,22.0109175 72.6233187,21.8540155 L72.6233187,21.8540155 C72.4971718,21.6778894 72.3696139,21.5048731 72.2395161,21.3366629 L72.2395161,21.3366629 C72.1032097,21.1605368 71.9669034,20.9838454 71.8260817,20.8159178 L71.8260817,20.8159178 C71.6742539,20.6344204 71.5184752,20.4611214 71.3618499,20.289236 L71.3618499,20.289236 C71.1953474,20.1066077 71.0260227,19.9304816 70.8547226,19.7580308 L70.8547226,19.7580308 C70.6710053,19.5728581 70.4853126,19.393905 70.29708,19.2206061 L70.29708,19.2206061 C70.0924794,19.0326064 69.8861855,18.8508262 69.677634,18.675831 L69.677634,18.675831 C69.4479169,18.4838734 69.2165065,18.2995489 68.9825563,18.1225747 L68.9825563,18.1225747 C68.7223607,17.9260938 68.4599075,17.7375287 68.1951966,17.5588583 L68.1951966,17.5588583 C67.8954919,17.3564406 67.594094,17.1619386 67.2910029,16.981572 L67.2910029,16.981572 C66.9289303,16.7661498 66.5654467,16.5691035 66.2025275,16.3828 L66.2025275,16.3828 C65.7532528,16.1529598 65.3051068,15.9440398 64.861194,15.755192 L64.861194,15.755192 C64.2386437,15.4905789 63.6256884,15.2638484 63.0305123,15.0710427 L63.0305123,15.0710427 C59.7221906,13.9981722 56.991266,13.942479 56.5843225,13.9402174 L56.5843225,13.9402174 L56.5391692,13.9402174 Z" id="Fill-5" fill="url(#linearGradient-9)" mask="url(#mask-8)"></path>
        </g>
    </g>
</svg>